<svg xmlns="http://www.w3.org/2000/svg" width="24" height="24" viewBox="0 0 24 24">
    <g fill="#DADADA" fill-rule="nonzero">
        <path d="M2.057 1.371a.686.686 0 0 0-.686.686V8.23c0 .378.307.685.686.685H8.23a.686.686 0 0 0 .685-.685V2.057a.686.686 0 0 0-.685-.686H2.057zm0-1.371H8.23c1.136 0 2.057.921 2.057 2.057V8.23a2.057 2.057 0 0 1-2.057 2.057H2.057A2.057 2.057 0 0 1 0 8.229V2.057C0 .921.921 0 2.057 0zM2.057 15.086a.686.686 0 0 0-.686.685v6.172c0 .379.307.686.686.686H8.23a.686.686 0 0 0 .685-.686V15.77a.686.686 0 0 0-.685-.685H2.057zm0-1.372H8.23c1.136 0 2.057.921 2.057 2.057v6.172A2.057 2.057 0 0 1 8.229 24H2.057A2.057 2.057 0 0 1 0 21.943V15.77c0-1.136.921-2.057 2.057-2.057zM15.771 1.371a.686.686 0 0 0-.685.686V8.23c0 .378.307.685.685.685h6.172a.686.686 0 0 0 .686-.685V2.057a.686.686 0 0 0-.686-.686H15.77zm0-1.371h6.172C23.079 0 24 .921 24 2.057V8.23a2.057 2.057 0 0 1-2.057 2.057H15.77a2.057 2.057 0 0 1-2.057-2.057V2.057C13.714.921 14.635 0 15.771 0zM15.771 15.086a.686.686 0 0 0-.685.685v6.172c0 .379.307.686.685.686h6.172a.686.686 0 0 0 .686-.686V15.77a.686.686 0 0 0-.686-.685H15.77zm0-1.372h6.172c1.136 0 2.057.921 2.057 2.057v6.172A2.057 2.057 0 0 1 21.943 24H15.77a2.057 2.057 0 0 1-2.057-2.057V15.77c0-1.136.921-2.057 2.057-2.057z"/>
        <path d="M16.332 15.771a.561.561 0 0 0-.56.561v5.05c0 .31.25.56.56.56h5.05c.31 0 .56-.25.56-.56v-5.05a.561.561 0 0 0-.56-.56h-5.05zm-.15-1.371h5.35c.984 0 1.782.798 1.782 1.783v5.348c0 .985-.798 1.783-1.783 1.783h-5.348a1.783 1.783 0 0 1-1.783-1.783v-5.348c0-.985.798-1.783 1.783-1.783zM16.332 2.057a.561.561 0 0 0-.56.561v5.05c0 .31.25.56.56.56h5.05c.31 0 .56-.25.56-.56v-5.05a.561.561 0 0 0-.56-.56h-5.05zm-.15-1.371h5.35c.984 0 1.782.798 1.782 1.783v5.348c0 .985-.798 1.783-1.783 1.783h-5.348A1.783 1.783 0 0 1 14.4 7.817V2.47c0-.985.798-1.783 1.783-1.783zM2.618 2.057a.561.561 0 0 0-.56.561v5.05c0 .31.25.56.56.56h5.05c.31 0 .56-.25.56-.56v-5.05a.561.561 0 0 0-.56-.56h-5.05zM2.468.686h5.35c.984 0 1.782.798 1.782 1.783v5.348c0 .985-.798 1.783-1.783 1.783H2.47A1.783 1.783 0 0 1 .686 7.817V2.47c0-.985.798-1.783 1.783-1.783zM2.618 15.771a.561.561 0 0 0-.56.561v5.05c0 .31.25.56.56.56h5.05c.31 0 .56-.25.56-.56v-5.05a.561.561 0 0 0-.56-.56h-5.05zm-.15-1.371h5.35c.984 0 1.782.798 1.782 1.783v5.348c0 .985-.798 1.783-1.783 1.783H2.47a1.783 1.783 0 0 1-1.783-1.783v-5.348c0-.985.798-1.783 1.783-1.783z"/>
    </g>
</svg>
