<svg xmlns="http://www.w3.org/2000/svg" width="20" height="15" viewBox="0 0 20 15">
    <path fill="#FFF" fill-rule="nonzero" d="M19.13 8.368a3.934 3.934 0 0 0-2.224-1.443c.285-.44.427-.93.427-1.47 0-.753-.26-1.396-.781-1.929a2.54 2.54 0 0 0-1.886-.799c-.66 0-1.236.22-1.729.66a5.32 5.32 0 0 0-1.963-2.46A5.137 5.137 0 0 0 8 0C6.528 0 5.27.533 4.23 1.598c-1.043 1.065-1.563 2.35-1.563 3.857 0 .092.007.245.02.458-.819.39-1.472.976-1.958 1.757A4.749 4.749 0 0 0 0 10.227c0 1.314.457 2.438 1.37 3.372C2.283 14.533 3.382 15 4.667 15H16c1.104 0 2.047-.4 2.828-1.199C19.61 13.003 20 12.04 20 10.91c0-.952-.29-1.799-.87-2.54zm-5.9.41l-3.657 3.74a.321.321 0 0 1-.24.096.321.321 0 0 1-.24-.096l-3.666-3.75a.336.336 0 0 1-.094-.245c0-.093.033-.173.1-.24a.317.317 0 0 1 .234-.101H8v-3.75c0-.092.033-.172.099-.24a.317.317 0 0 1 .234-.1h2c.09 0 .169.033.235.1a.332.332 0 0 1 .099.24v3.75H13a.32.32 0 0 1 .24.096.335.335 0 0 1 .093.245c0 .085-.035.17-.104.255z"/>
</svg>
