<svg xmlns="http://www.w3.org/2000/svg" width="27" height="18" viewBox="0 0 27 18">
    <g fill="none" fill-rule="evenodd">
        <path d="M-10-13h44v44h-44z"/>
        <path fill="#FFF" d="M8.485 7.317h8.149C17.2 11.39 15.489 17.5 8.485 17.5 3.8 17.5 0 13.694 0 9 0 4.305 3.8.5 8.485.5c2.199 0 4.202.837 5.71 2.212-1.776 1.68-1.718 1.78-2.416 2.48-.872-.723-1.822-1.242-3.294-1.242C5.701 3.95 3.53 6.211 3.53 9c0 2.789 2.172 5.05 4.956 5.05 2.75 0 3.868-1.189 4.587-3.371-1.327 0-4.587.004-4.587.004V7.317zm15.29.168h2.94v2.104h-2.94v3.03h-2.1v-3.03H18.65V7.485h3.025V4.54h2.1v2.945z"/>
    </g>
</svg>
